<svg width="826" height="672" viewBox="0 0 826 672" fill="none" xmlns="http://www.w3.org/2000/svg">
<g filter="url(#filter0_d_1441_6114)">
<path d="M11.9446 366.346C32.8376 273.465 85.7971 194.02 149.913 126.402C213.924 59.4928 289.287 5.50726 363.487 0.631493C437.989 -3.85677 511.327 40.7648 583.854 86.0286C656.079 130.905 727.598 175.714 773.703 249.389C819.809 323.064 841.011 424.575 799.534 491.808C758.358 559.428 654.909 592.449 567.275 615.462C480.349 638.541 409.645 651.29 319.968 659.021C229.99 666.365 121.341 669.078 61.58 617.47C1.81923 565.863 -9.35425 459.547 11.9446 366.346Z" fill="#008E6F"/>
</g>
<defs>
<filter id="filter0_d_1441_6114" x="-2.02441" y="0.319336" width="827.77" height="670.72" filterUnits="userSpaceOnUse" color-interpolation-filters="sRGB">
<feFlood flood-opacity="0" result="BackgroundImageFix"/>
<feColorMatrix in="SourceAlpha" type="matrix" values="0 0 0 0 0 0 0 0 0 0 0 0 0 0 0 0 0 0 127 0" result="hardAlpha"/>
<feOffset dy="4"/>
<feGaussianBlur stdDeviation="2"/>
<feComposite in2="hardAlpha" operator="out"/>
<feColorMatrix type="matrix" values="0 0 0 0 0 0 0 0 0 0 0 0 0 0 0 0 0 0 0.25 0"/>
<feBlend mode="normal" in2="BackgroundImageFix" result="effect1_dropShadow_1441_6114"/>
<feBlend mode="normal" in="SourceGraphic" in2="effect1_dropShadow_1441_6114" result="shape"/>
</filter>
</defs>
</svg>
