<svg width="731" height="1024" viewBox="0 0 731 1024" fill="none" xmlns="http://www.w3.org/2000/svg">
<path fill-rule="evenodd" clip-rule="evenodd" d="M163.025 418.982C198.524 345.526 184.563 255.762 232.03 189.36C288.102 110.921 360.08 36.6171 453.779 12.2489C552.344 -13.3848 660.731 6.29643 750.654 54.4822C838.999 101.823 895.298 188.609 944.863 275.401C993.279 360.18 1040.59 451.222 1032.61 548.205C1024.79 643.127 956.666 717.742 902.023 795.777C847.952 872.995 802.29 963.207 715.582 1000.95C628.511 1038.84 527.688 1023.83 435.83 998.682C349.839 975.142 282.58 917.041 211.736 863.022C133.892 803.665 11.7273 764.042 1.10355 667.199C-9.89871 566.905 119.166 509.736 163.025 418.982Z" fill="#00745B"/>
</svg>
