<svg width="95" height="94" viewBox="0 0 95 94" fill="none" xmlns="http://www.w3.org/2000/svg">
<path d="M14.849 0.342652L14.9414 0.250225C15.2248 0.237902 15.4405 0.354974 15.5884 0.601442C15.7362 0.847911 15.7732 1.12519 15.6993 1.43327L9.56222 25.1682C9.41434 25.7227 9.03847 26 8.43463 26H5.21821C4.91013 26 4.68831 25.8891 4.55275 25.6673C4.41719 25.4331 4.38638 25.1558 4.46032 24.8354L8.89675 7.62579L8.32371 8.32822C7.88007 8.88278 7.36249 9.16005 6.77096 9.16005C6.77096 9.16005 5.9761 9.16005 4.38638 9.16005C4.11527 9.16005 3.88729 9.06147 3.70243 8.86429C3.52991 8.66712 3.47445 8.38984 3.53607 8.03246C3.59769 7.67508 3.82567 7.30538 4.22002 6.92335L9.11858 2.37601C9.21716 2.28975 9.38969 2.12338 9.63616 1.87692C9.89495 1.63045 10.0798 1.45792 10.1907 1.35933C10.3016 1.26074 10.4618 1.12519 10.6713 0.952661C10.8808 0.767809 11.0534 0.638413 11.1889 0.564472C11.3245 0.490531 11.4723 0.422752 11.6326 0.361136C11.8051 0.287195 11.9591 0.250225 12.0947 0.250225H14.9044L14.849 0.342652ZM24.1157 4.6312L23.0251 8.9752C23.7645 8.7657 24.51 8.66095 25.2618 8.66095C26.0628 8.66095 26.759 8.78419 27.3506 9.03066C27.9544 9.2648 28.4165 9.59754 28.737 10.0289C29.0697 10.4602 29.3285 10.9346 29.5133 11.4522C29.6982 11.9575 29.7968 12.5243 29.8091 13.1528C29.8337 13.769 29.8214 14.342 29.7721 14.872C29.7228 15.4019 29.6427 15.9441 29.5318 16.4986C28.891 19.7027 27.6956 22.2044 25.9457 24.0036C24.2081 25.8028 22.2733 26.61 20.1414 26.4252C19.1925 26.5114 18.3422 26.4067 17.5904 26.1109C16.851 25.8151 16.2841 25.39 15.8898 24.8354C15.5078 24.2686 15.2551 23.6339 15.1319 22.9315C15.0087 22.229 15.0765 21.4896 15.3352 20.7133C15.594 19.9369 16.013 19.216 16.5922 18.5505C16.6908 18.4396 16.7648 18.3656 16.8141 18.3287C16.8757 18.2794 16.9804 18.2301 17.1283 18.1808C17.2762 18.1315 17.4364 18.1377 17.6089 18.1993L19.8826 18.6614C20.2276 18.723 20.4495 18.8154 20.548 18.9387C20.6466 19.0496 20.6405 19.2714 20.5296 19.6041C20.1845 20.6147 20.049 21.4095 20.1229 21.9887C20.1968 22.5556 20.431 22.8699 20.8253 22.9315C21.0225 22.9561 21.3429 22.7405 21.7866 22.2845C22.2425 21.8162 22.7355 21.1446 23.2654 20.2696C23.7953 19.3823 24.2081 18.4642 24.5039 17.5153C24.7627 16.6527 24.9475 15.8517 25.0584 15.1123C25.1693 14.3605 25.1817 13.732 25.0954 13.2268C25.0091 12.7092 24.812 12.4134 24.5039 12.3395C23.8877 12.3888 23.2407 12.7154 22.5629 13.3192C21.8975 13.9107 21.3429 14.607 20.8993 15.408C20.7021 15.7284 20.4371 15.827 20.1044 15.7038L17.4241 14.6501C17.1653 14.5515 16.9989 14.4345 16.925 14.2989C16.8633 14.1634 16.8757 13.9107 16.9619 13.541L20.1044 1.04508C20.24 0.515178 20.622 0.250225 21.2505 0.250225H32.5634C32.9454 0.250225 33.1919 0.354974 33.3028 0.564472C33.4137 0.77397 33.4075 1.12519 33.2843 1.61812L32.6743 4.03967C32.6003 4.37241 32.5202 4.58191 32.434 4.66817C32.3477 4.75443 32.1752 4.79756 31.9164 4.79756L24.1157 4.6312ZM41.9027 9.844C40.9169 9.5236 40.2452 9.49279 39.8879 9.75158C39.3703 10.1459 38.7048 11.4337 37.8915 13.615C37.0781 15.7962 36.5297 17.6632 36.2463 19.216C36.16 19.6842 36.1292 19.9923 36.1539 20.1402C36.1785 20.2881 36.2771 20.362 36.4496 20.362C36.6468 20.362 36.9364 20.1402 37.3184 19.6966C37.7128 19.2406 38.1564 18.5936 38.6494 17.7556C39.8447 15.7099 40.8614 13.2576 41.6994 10.3986L41.9027 9.844ZM38.0763 23.3381L37.799 23.6524C37.0227 24.5766 36.4127 25.2175 35.969 25.5748C35.5377 25.9322 35.1002 26.1109 34.6566 26.1109H34.3978C33.9665 26.1109 33.338 25.6981 32.5123 24.8724C31.4155 23.7756 30.9349 22.5494 31.0705 21.1939C31.3416 18.4581 32.0563 15.5497 33.2147 12.4689C34.3731 9.37571 35.4884 7.42245 36.5605 6.60911C37.4108 5.95597 38.4214 5.6294 39.5921 5.6294C40.7258 5.6294 41.8041 6.01142 42.827 6.77547C43.0611 5.98677 43.4555 5.59243 44.01 5.59243L46.3207 5.55545C46.9861 5.55545 47.2511 5.89435 47.1155 6.57214C46.6103 8.6055 45.8955 11.2735 44.9713 14.5762C44.047 17.8665 43.1597 20.9597 42.3094 23.8557C41.4714 26.7517 41.0278 28.286 40.9785 28.4585C40.4362 30.4179 39.5674 31.7181 38.3721 32.3589C37.7189 32.7163 37.2137 32.9504 36.8563 33.0613C36.4989 33.1846 36.0984 33.2092 35.6548 33.1353C35.2111 33.0736 34.7059 32.8765 34.139 32.5437L30.2756 30.3625C29.9429 30.2146 29.7642 29.9928 29.7395 29.697C29.7149 29.4013 29.795 29.1671 29.9798 28.9946L31.1814 27.3679C31.4032 27.1338 31.6004 26.992 31.7729 26.9427C31.9577 26.8934 32.1796 26.9304 32.4384 27.0537L35.7287 28.8467C36.16 29.0685 36.4989 28.7728 36.7454 27.9594L38.0763 23.3381ZM54.3662 11.1564L57.139 7.29306C57.5826 6.70153 58.0201 6.26405 58.4514 5.98061C58.8951 5.69717 59.4065 5.55545 59.9857 5.55545H61.8342C62.4134 5.55545 62.8817 5.73414 63.2391 6.09152C63.5965 6.4489 63.6581 7.0774 63.4239 7.97701L62.6845 10.7867L65.3094 7.40397C65.827 6.68921 66.3199 6.19627 66.7882 5.92516C67.2688 5.65404 67.7987 5.51848 68.3779 5.51848H69.7828C70.399 5.51848 70.8611 5.72182 71.1692 6.12849C71.4896 6.52284 71.5204 7.21295 71.2616 8.19883L66.7143 25.4639C66.6034 25.846 66.2891 26.037 65.7715 26.037L62.703 26C62.5675 26 62.4442 25.9261 62.3333 25.7782C62.2347 25.618 62.2286 25.39 62.3148 25.0942L64.7549 16.4617C64.7918 16.3138 64.8534 16.092 64.9397 15.7962C65.026 15.4881 65.0999 15.2232 65.1615 15.0014C65.2231 14.7795 65.2786 14.5515 65.3279 14.3174C65.3772 14.0833 65.4018 13.9046 65.4018 13.7813C65.4018 13.6458 65.371 13.578 65.3094 13.578C65.2355 13.578 65.1615 13.6088 65.0876 13.6704C65.0136 13.732 64.9274 13.8306 64.8288 13.9662C64.7425 14.1017 64.6624 14.225 64.5885 14.3359C64.5269 14.4468 64.4283 14.6193 64.2927 14.8535C64.1695 15.0753 64.0709 15.2478 63.997 15.3711C63.3808 16.4678 62.4381 18.304 61.1687 20.8796C59.9118 23.4552 59.1231 24.9833 58.8026 25.4639C58.6178 25.846 58.3035 26.037 57.8599 26.037L54.7914 26C54.6558 26 54.5326 25.9261 54.4217 25.7782C54.3231 25.618 54.3169 25.39 54.4032 25.0942L56.7508 16.4617C56.7754 16.3508 56.8186 16.1906 56.8802 15.9811C56.9541 15.7592 57.0096 15.5744 57.0466 15.4265C57.0959 15.2786 57.1451 15.0999 57.1944 14.8904C57.2561 14.6809 57.293 14.5084 57.3054 14.3729C57.33 14.2373 57.3485 14.1079 57.3608 13.9847C57.3731 13.8491 57.3608 13.7505 57.3238 13.6889C57.2992 13.615 57.2499 13.578 57.176 13.578C57.102 13.578 57.0281 13.6026 56.9541 13.6519C56.8925 13.7012 56.8124 13.7875 56.7138 13.9107C56.6276 14.034 56.5536 14.1449 56.492 14.2435C56.4304 14.342 56.338 14.4961 56.2147 14.7056C56.0915 14.9151 55.9929 15.0815 55.919 15.2047C55.2289 16.3261 54.2307 18.1746 52.9244 20.7502C51.6304 23.3258 50.8294 24.8354 50.5213 25.2791C50.1639 25.7597 49.7696 26 49.3383 26H47.0276C46.8058 26 46.6333 25.9076 46.51 25.7227C46.3745 25.5255 46.3437 25.2914 46.4176 25.0203L51.3531 6.60911C51.5133 5.90667 51.8892 5.55545 52.4807 5.55545H54.9023C55.3706 5.55545 55.6725 5.64172 55.8081 5.81425C55.9436 5.98677 55.9559 6.29486 55.845 6.7385L54.3662 11.1564ZM12.2795 66.4243C12.2795 66.4243 12.0392 67.3547 11.5586 69.2155L12.4644 68.1249C13.2408 67.2006 13.8446 66.5598 14.2759 66.2024C14.7196 65.8451 15.1632 65.6664 15.6069 65.6664H15.8656C16.297 65.6664 16.9316 66.0854 17.7696 66.9234C18.8541 68.0078 19.3285 69.2278 19.193 70.5834C18.9219 73.3192 18.2071 76.2337 17.0487 79.3269C15.8903 82.4077 14.775 84.3548 13.7029 85.1682C12.8526 85.8213 11.8482 86.1479 10.6898 86.1479C9.56838 86.1479 8.50857 85.7843 7.51037 85.0573L5.53246 92.7471C5.38458 93.3016 5.00872 93.5789 4.40487 93.5789H1.48422C1.07755 93.5789 0.794109 93.4618 0.633904 93.2277C0.4737 92.9935 0.430568 92.7039 0.504509 92.3589L7.15915 66.3873C7.30703 65.8327 7.68906 65.5555 8.30523 65.5555H11.4477C12.1378 65.5555 12.4151 65.8451 12.2795 66.4243ZM8.36069 81.9518C8.74271 82.075 9.11241 82.1489 9.46979 82.1736C9.8395 82.1982 10.1414 82.1489 10.3756 82.0257C10.8931 81.6313 11.5586 80.3436 12.372 78.1623C13.1853 75.9811 13.7337 74.1141 14.0171 72.5613C14.1034 72.093 14.1342 71.7911 14.1096 71.6555C14.0972 71.5077 14.0048 71.4337 13.8323 71.4337C13.6351 71.4337 13.3393 71.6617 12.945 72.1177C12.563 72.5613 12.1255 73.2021 11.6326 74.0401C10.4125 76.1474 9.38969 78.5936 8.56402 81.3787L8.36069 81.9518ZM27.5004 68.9937C27.981 68.2913 28.4862 67.6135 29.0161 66.9603C29.0408 66.9234 29.0901 66.8617 29.164 66.7755C29.2503 66.6769 29.2996 66.6153 29.3119 66.5906C29.3366 66.566 29.3797 66.5167 29.4413 66.4427C29.5029 66.3688 29.5399 66.3257 29.5522 66.3133C29.5769 66.2887 29.6138 66.2517 29.6631 66.2024C29.7247 66.1408 29.7679 66.0977 29.7925 66.073C29.8295 66.0361 29.8726 65.9991 29.9219 65.9621C29.9712 65.9128 30.0205 65.8759 30.0698 65.8512C30.1191 65.8142 30.1684 65.7773 30.2177 65.7403C30.5011 65.5431 31.031 65.4445 31.8074 65.4445H33.8962C34.2166 65.4445 34.4508 65.5123 34.5987 65.6479C34.7589 65.7711 34.7773 65.9868 34.6541 66.2949C34.5432 66.5906 34.2536 66.948 33.7853 67.367C33.28 67.823 32.4975 68.7102 31.4377 70.0289C30.7846 70.8668 30.458 71.446 30.458 71.7665C30.458 72.4196 30.7722 73.0358 31.4007 73.615C31.487 73.7136 31.5178 73.8121 31.4932 73.9107C31.4685 74.0093 31.3761 74.1017 31.2159 74.188C31.068 74.2743 30.8893 74.3236 30.6798 74.3359L27.981 74.5762C27.5497 74.6132 27.2108 74.5331 26.9643 74.3359C26.8164 74.225 26.6069 73.9231 26.3358 73.4301L23.2488 85.1682C23.1009 85.7227 22.725 86 22.1212 86H19.0527C18.3626 86 18.0853 85.7104 18.2208 85.1312L23.1379 66.3873C23.2858 65.8327 23.6678 65.5555 24.284 65.5555H27.3525C28.0426 65.5555 28.3199 65.8451 28.1843 66.4243L27.5004 68.9937ZM39.1114 79.8629C39.5058 79.1112 39.857 78.2855 40.1651 77.3859C40.4731 76.4863 40.6765 75.7839 40.7751 75.2786C40.9106 74.835 41.0339 74.2003 41.1448 73.3747C41.2557 72.549 41.2557 71.7233 41.1448 70.8977C41.0339 70.0597 40.7443 69.6407 40.276 69.6407C39.7584 69.6407 39.3024 69.9056 38.9081 70.4355C38.5137 70.9654 38.1132 71.748 37.7065 72.7831C37.6942 72.8078 37.6264 72.9803 37.5032 73.3007C37.38 73.6211 37.2629 73.9231 37.152 74.2065C37.0534 74.4899 36.924 74.872 36.7638 75.3526C36.6159 75.8332 36.4865 76.283 36.3756 76.702C36.277 77.1087 36.1908 77.5585 36.1168 78.0514C36.0429 78.5443 36.0059 78.988 36.0059 79.3823C36.0059 80.2203 36.0614 80.8057 36.1723 81.1384C36.2955 81.4711 36.5789 81.6806 37.0226 81.7669C37.4539 81.7053 37.8174 81.5451 38.1132 81.2863C38.409 81.0275 38.7417 80.5531 39.1114 79.8629ZM33.6213 70.4355C34.2745 68.9444 35.1926 67.7059 36.3756 66.72C37.571 65.7218 38.9882 65.2227 40.6272 65.2227C41.5761 65.2227 42.4018 65.4014 43.1042 65.7588C43.819 66.1162 44.4166 66.7816 44.8973 67.7552C45.1067 68.1495 45.2608 68.6363 45.3594 69.2155C45.4703 69.7824 45.5257 70.2322 45.5257 70.5649C45.5381 70.8977 45.5442 71.4645 45.5442 72.2656C45.5442 73.8306 45.2978 75.445 44.8048 77.1087C44.3119 78.7723 43.6526 80.3004 42.8269 81.693C41.9766 83.1102 41.0277 84.2316 39.9802 85.0573C38.945 85.8829 37.8729 86.2958 36.7638 86.2958C35.9505 86.2958 35.2665 86.2033 34.7119 86.0185C34.1574 85.846 33.5905 85.4516 33.0113 84.8354C32.4444 84.2316 32.0254 83.4367 31.7543 82.4509C31.4832 81.4527 31.3477 80.4298 31.3477 79.3823C31.3477 76.6219 32.1055 73.6396 33.6213 70.4355ZM56.5572 60.9342C56.5572 60.9342 56.169 62.4746 55.3926 65.5555H57.426C57.7217 65.5555 57.9127 65.6232 57.999 65.7588C58.0853 65.882 58.0853 66.0915 57.999 66.3873L57.352 68.5131C57.1918 69.0676 56.8653 69.3449 56.3723 69.3449H54.4129L50.3831 85.1682C50.2353 85.7227 49.8594 86 49.2556 86H46.3349C45.9282 86 45.6448 85.8829 45.4846 85.6488C45.3244 85.4146 45.2812 85.125 45.3552 84.78L49.2925 69.3449H47.8507C47.5919 69.3449 47.4194 69.2833 47.3331 69.1601C47.2592 69.0245 47.2653 68.7842 47.3516 68.4391L47.9616 66.2764C48.0479 65.9806 48.1526 65.7896 48.2758 65.7033C48.4114 65.6047 48.5839 65.5555 48.7934 65.5555H50.2537L51.4553 60.8972C51.6032 60.3427 51.979 60.0654 52.5829 60.0654H55.7253C56.4155 60.0654 56.6927 60.355 56.5572 60.9342ZM60.8396 60.4905C60.8396 59.7511 61.1046 59.1226 61.6345 58.605C62.1644 58.0875 62.8299 57.8287 63.6309 57.8287H64.1669C64.7831 57.8287 65.3562 58.106 65.8861 58.6605C66.4283 59.2027 66.6994 59.8127 66.6994 60.4905C66.6994 61.2299 66.4221 61.8523 65.8676 62.3575C65.3253 62.8505 64.6476 63.0969 63.8342 63.0969H63.3351C62.6696 63.0969 62.0843 62.8381 61.579 62.3206C61.0861 61.7907 60.8396 61.1806 60.8396 60.4905ZM64.9248 66.4243C64.9248 66.4243 63.2858 72.6722 60.0078 85.1682C59.8599 85.7227 59.4779 86 58.8617 86H55.7932C55.1031 86 54.8258 85.7104 54.9614 85.1312L59.8969 66.3873C60.0448 65.8327 60.4206 65.5555 61.0245 65.5555H64.093C64.7831 65.5555 65.0604 65.8451 64.9248 66.4243ZM70.5939 76.3138C71.4688 75.7592 72.2206 74.8843 72.8491 73.6889C73.4899 72.4935 73.8103 71.3968 73.8103 70.3986C73.8103 70.0042 73.7733 69.7393 73.6994 69.6037C73.6378 69.4558 73.5145 69.3819 73.3297 69.3819C73.1448 69.3819 72.9292 69.579 72.6827 69.9734C72.4486 70.3677 72.2575 70.7621 72.1097 71.1564C71.6167 72.4381 71.1115 74.1572 70.5939 76.3138ZM69.7066 80.436C69.5957 81.0152 69.5649 81.391 69.6142 81.5636C69.6758 81.7238 69.8545 81.8532 70.1502 81.9518C70.5692 81.8655 71.4134 81.1446 72.6827 79.789C72.7813 79.6904 72.9045 79.635 73.0524 79.6226C73.2003 79.6103 73.3297 79.6411 73.4406 79.7151L75.2891 80.8427C75.437 80.9289 75.5417 81.0645 75.6033 81.2493C75.6773 81.4342 75.6835 81.5821 75.6218 81.693C75.1782 82.5556 74.1553 83.6401 72.5533 84.9463C70.9513 86.2526 69.8422 86.8442 69.226 86.7209C66.8106 86.191 65.4365 85.1558 65.1038 83.6154C64.882 82.531 64.9621 80.8796 65.3441 78.6614C65.7261 76.4432 66.3177 74.2558 67.1187 72.0992C67.932 69.9426 68.7639 68.4699 69.6142 67.6812C70.181 67.139 70.7726 66.7015 71.3887 66.3688C72.0172 66.0237 72.6642 65.8081 73.3297 65.7218C74.0075 65.6232 74.6483 65.7095 75.2521 65.9806C77.0144 66.7323 77.8955 68.0325 77.8955 69.881C77.8955 71.138 77.5012 72.4997 76.7125 73.9662C75.9238 75.4203 74.8948 76.739 73.6254 77.922C72.3561 79.0927 71.0498 79.9307 69.7066 80.436ZM84.8359 71.1564L87.6087 67.2931C88.0524 66.7015 88.4898 66.2641 88.9212 65.9806C89.3648 65.6972 89.8762 65.5555 90.4554 65.5555H92.3039C92.8831 65.5555 93.3514 65.7341 93.7088 66.0915C94.0662 66.4489 94.1278 67.0774 93.8937 67.977L89.2724 85.4639C89.1615 85.846 88.8472 86.037 88.3296 86.037L85.2611 86C85.1255 86 85.0023 85.9261 84.8914 85.7782C84.7928 85.618 84.7867 85.39 84.8729 85.0942L87.2205 76.4617C87.2452 76.3508 87.2883 76.1906 87.3499 75.9811C87.4239 75.7592 87.4793 75.5744 87.5163 75.4265C87.5656 75.2786 87.6149 75.0999 87.6642 74.8904C87.7258 74.6809 87.7628 74.5084 87.7751 74.3729C87.7997 74.2373 87.8182 74.1079 87.8305 73.9847C87.8429 73.8491 87.8305 73.7505 87.7936 73.6889C87.7689 73.615 87.7196 73.578 87.6457 73.578C87.5717 73.578 87.4978 73.6026 87.4239 73.6519C87.3622 73.7012 87.2821 73.7875 87.1836 73.9107C87.0973 74.034 87.0234 74.1449 86.9617 74.2435C86.9001 74.342 86.8077 74.4961 86.6845 74.7056C86.5612 74.9151 86.4626 75.0815 86.3887 75.2047C85.6986 76.3261 84.7004 78.1746 83.3941 80.7502C82.1001 83.3258 81.2991 84.8354 80.991 85.2791C80.6337 85.7597 80.2393 86 79.808 86H77.4974C77.2755 86 77.103 85.9076 76.9798 85.7227C76.8442 85.5255 76.8134 85.2914 76.8873 85.0203L81.8229 66.6091C81.9831 65.9067 82.3589 65.5555 82.9505 65.5555H85.372C85.8526 65.5555 86.1669 65.6479 86.3148 65.8327C86.4626 66.0053 86.4626 66.3072 86.3148 66.7385L84.8359 71.1564Z" fill="white"/>
</svg>
