<svg width="75" height="88" viewBox="0 0 75 88" fill="none" xmlns="http://www.w3.org/2000/svg">
<path d="M7.60099 22.5266L14.7547 22.2308C15.5065 22.2308 15.7961 22.6313 15.6235 23.4324L15.0135 25.9463C14.9642 26.2298 14.8102 26.4763 14.5514 26.6858C14.2926 26.8953 14.0215 27 13.7381 27H2.53607C2.11707 27 1.74737 26.846 1.42696 26.5379C1.10655 26.2175 0.940186 25.8108 0.927863 25.3179C0.903216 24.8249 1.1312 24.2765 1.61181 23.6727L11.8711 11.7867C12.2161 11.3554 12.5488 10.8502 12.8693 10.271C13.6456 8.79215 14.0153 7.46123 13.9784 6.27818C13.9537 5.09513 13.4546 4.50361 12.4811 4.50361C11.8402 4.50361 11.2549 4.9226 10.725 5.76059C10.2074 6.58626 9.9486 7.52284 9.9486 8.57033C9.9486 8.63195 9.92396 8.72438 9.87466 8.84761C9.82537 8.95852 9.71446 9.08792 9.54193 9.2358C9.38173 9.38368 9.17839 9.4761 8.93192 9.51308L5.51217 10.0307C5.2657 10.0676 5.07469 10.0368 4.93913 9.93823C4.80358 9.83964 4.71731 9.72257 4.68034 9.58702C4.6557 9.45146 4.64337 9.27277 4.64337 9.05095C4.64337 6.78344 5.46904 4.83634 7.12038 3.20965C8.78404 1.58296 10.8112 0.769612 13.202 0.769612C14.2125 0.769612 15.1121 0.948301 15.9008 1.30568C16.7018 1.66306 17.3427 2.14983 17.8233 2.76601C18.3162 3.38218 18.6613 4.11542 18.8584 4.96573C19.0556 5.81605 19.0864 6.72182 18.9509 7.68305C18.8153 8.63195 18.4826 9.64863 17.9527 10.7331C17.4351 11.8176 16.7388 12.8712 15.8638 13.894L7.60099 22.5266ZM27.1596 5.6312L26.069 9.9752C26.8084 9.7657 27.554 9.66095 28.3057 9.66095C29.1067 9.66095 29.803 9.78419 30.3945 10.0307C30.9984 10.2648 31.4605 10.5975 31.7809 11.0289C32.1136 11.4602 32.3724 11.9346 32.5573 12.4522C32.7421 12.9575 32.8407 13.5243 32.853 14.1528C32.8777 14.769 32.8654 15.342 32.8161 15.872C32.7668 16.4019 32.6867 16.9441 32.5758 17.4986C31.9349 20.7027 30.7396 23.2044 28.9896 25.0036C27.252 26.8028 25.3173 27.61 23.1853 27.4252C22.2364 27.5114 21.3861 27.4067 20.6344 27.1109C19.895 26.8151 19.3281 26.39 18.9337 25.8354C18.5517 25.2686 18.2991 24.6339 18.1759 23.9315C18.0526 23.229 18.1204 22.4896 18.3792 21.7133C18.638 20.9369 19.057 20.216 19.6362 19.5505C19.7348 19.4396 19.8087 19.3656 19.858 19.3287C19.9196 19.2794 20.0244 19.2301 20.1722 19.1808C20.3201 19.1315 20.4803 19.1377 20.6529 19.1993L22.9265 19.6614C23.2716 19.723 23.4934 19.8154 23.592 19.9387C23.6906 20.0496 23.6844 20.2714 23.5735 20.6041C23.2285 21.6147 23.0929 22.4095 23.1668 22.9887C23.2408 23.5556 23.4749 23.8699 23.8693 23.9315C24.0664 23.9561 24.3869 23.7405 24.8305 23.2845C25.2865 22.8162 25.7794 22.1446 26.3093 21.2696C26.8392 20.3823 27.252 19.4642 27.5478 18.5153C27.8066 17.6527 27.9915 16.8517 28.1024 16.1123C28.2133 15.3605 28.2256 14.732 28.1393 14.2268C28.0531 13.7092 27.8559 13.4134 27.5478 13.3395C26.9316 13.3888 26.2847 13.7154 25.6069 14.3192C24.9414 14.9107 24.3869 15.607 23.9432 16.408C23.746 16.7284 23.4811 16.827 23.1484 16.7038L20.468 15.6501C20.2092 15.5515 20.0429 15.4345 19.9689 15.2989C19.9073 15.1634 19.9196 14.9107 20.0059 14.541L23.1484 2.04508C23.2839 1.51518 23.6659 1.25022 24.2944 1.25022H35.6073C35.9893 1.25022 36.2358 1.35497 36.3467 1.56447C36.4576 1.77397 36.4515 2.12519 36.3282 2.61812L35.7182 5.03967C35.6443 5.37241 35.5642 5.58191 35.4779 5.66817C35.3917 5.75443 35.2191 5.79756 34.9603 5.79756L27.1596 5.6312ZM44.9467 10.844C43.9608 10.5236 43.2892 10.4928 42.9318 10.7516C42.4142 11.1459 41.7488 12.4337 40.9354 14.615C40.1221 16.7962 39.5737 18.6632 39.2902 20.216C39.204 20.6842 39.1732 20.9923 39.1978 21.1402C39.2225 21.2881 39.321 21.362 39.4936 21.362C39.6907 21.362 39.9803 21.1402 40.3624 20.6966C40.7567 20.2406 41.2004 19.5936 41.6933 18.7556C42.8887 16.7099 43.9054 14.2576 44.7433 11.3986L44.9467 10.844ZM41.1203 24.3381L40.843 24.6524C40.0666 25.5766 39.4566 26.2175 39.013 26.5748C38.5816 26.9322 38.1442 27.1109 37.7005 27.1109H37.4417C37.0104 27.1109 36.3819 26.6981 35.5562 25.8724C34.4595 24.7756 33.9788 23.5494 34.1144 22.1939C34.3855 19.4581 35.1003 16.5497 36.2587 13.4689C37.4171 10.3757 38.5323 8.42245 39.6045 7.60911C40.4548 6.95597 41.4653 6.6294 42.636 6.6294C43.7698 6.6294 44.8481 7.01142 45.8709 7.77547C46.1051 6.98677 46.4994 6.59243 47.054 6.59243L49.3646 6.55545C50.0301 6.55545 50.295 6.89435 50.1595 7.57214C49.6542 9.6055 48.9395 12.2735 48.0152 15.5762C47.091 18.8665 46.2037 21.9597 45.3534 24.8557C44.5154 27.7517 44.0717 29.286 44.0224 29.4585C43.4802 31.4179 42.6114 32.7181 41.416 33.3589C40.7629 33.7163 40.2576 33.9504 39.9002 34.0613C39.5429 34.1846 39.1423 34.2092 38.6987 34.1353C38.2551 34.0736 37.7498 33.8765 37.1829 33.5437L33.3195 31.3625C32.9868 31.2146 32.8081 30.9928 32.7835 30.697C32.7588 30.4013 32.8389 30.1671 33.0238 29.9946L34.2253 28.3679C34.4471 28.1338 34.6443 27.992 34.8168 27.9427C35.0017 27.8934 35.2235 27.9304 35.4823 28.0537L38.7726 29.8467C39.204 30.0685 39.5429 29.7728 39.7893 28.9594L41.1203 24.3381ZM57.4102 12.1564L60.1829 8.29306C60.6266 7.70153 61.0641 7.26405 61.4954 6.98061C61.939 6.69717 62.4504 6.55545 63.0296 6.55545H64.8782C65.4574 6.55545 65.9256 6.73414 66.283 7.09152C66.6404 7.4489 66.702 8.0774 66.4679 8.97701L65.7285 11.7867L68.3534 8.40397C68.8709 7.68921 69.3639 7.19627 69.8322 6.92516C70.3128 6.65404 70.8427 6.51848 71.4219 6.51848H72.8268C73.4429 6.51848 73.9051 6.72182 74.2131 7.12849C74.5335 7.52284 74.5644 8.21295 74.3056 9.19883L69.7582 26.4639C69.6473 26.846 69.3331 27.037 68.8155 27.037L65.747 27C65.6114 27 65.4882 26.9261 65.3773 26.7782C65.2787 26.618 65.2725 26.39 65.3588 26.0942L67.7988 17.4617C67.8358 17.3138 67.8974 17.092 67.9837 16.7962C68.0699 16.4881 68.1439 16.2232 68.2055 16.0014C68.2671 15.7795 68.3225 15.5515 68.3718 15.3174C68.4211 15.0833 68.4458 14.9046 68.4458 14.7813C68.4458 14.6458 68.415 14.578 68.3534 14.578C68.2794 14.578 68.2055 14.6088 68.1315 14.6704C68.0576 14.732 67.9713 14.8306 67.8727 14.9662C67.7865 15.1017 67.7064 15.225 67.6324 15.3359C67.5708 15.4468 67.4722 15.6193 67.3367 15.8535C67.2134 16.0753 67.1149 16.2478 67.0409 16.3711C66.4247 17.4678 65.482 19.304 64.2127 21.8796C62.9557 24.4552 62.167 25.9833 61.8466 26.4639C61.6617 26.846 61.3475 27.037 60.9039 27.037L57.8353 27C57.6998 27 57.5765 26.9261 57.4656 26.7782C57.367 26.618 57.3609 26.39 57.4471 26.0942L59.7947 17.4617C59.8194 17.3508 59.8625 17.1906 59.9241 16.9811C59.9981 16.7592 60.0535 16.5744 60.0905 16.4265C60.1398 16.2786 60.1891 16.0999 60.2384 15.8904C60.3 15.6809 60.337 15.5084 60.3493 15.3729C60.3739 15.2373 60.3924 15.1079 60.4048 14.9847C60.4171 14.8491 60.4048 14.7505 60.3678 14.6889C60.3431 14.615 60.2938 14.578 60.2199 14.578C60.146 14.578 60.072 14.6026 59.9981 14.6519C59.9365 14.7012 59.8564 14.7875 59.7578 14.9107C59.6715 15.034 59.5976 15.1449 59.536 15.2435C59.4743 15.342 59.3819 15.4961 59.2587 15.7056C59.1354 15.9151 59.0369 16.0815 58.9629 16.2047C58.2728 17.3261 57.2746 19.1746 55.9683 21.7502C54.6744 24.3258 53.8733 25.8354 53.5653 26.2791C53.2079 26.7597 52.8135 27 52.3822 27H50.0716C49.8497 27 49.6772 26.9076 49.554 26.7227C49.4184 26.5255 49.3876 26.2914 49.4616 26.0203L54.3971 7.60911C54.5573 6.90667 54.9332 6.55545 55.5247 6.55545H57.9462C58.4145 6.55545 58.7164 6.64172 58.852 6.81425C58.9876 6.98677 58.9999 7.29486 58.889 7.7385L57.4102 12.1564ZM11.3165 66.4076C12.2284 66.5062 13.0849 66.7588 13.8859 67.1655C14.687 67.5598 15.2415 67.9234 15.5496 68.2561C15.7468 68.4779 15.8515 68.7244 15.8638 68.9955C15.8885 69.2543 15.833 69.4515 15.6975 69.587L13.9599 71.4355C13.7504 71.645 13.5778 71.7744 13.4423 71.8237C13.3067 71.8607 13.1157 71.8237 12.8693 71.7128C11.6985 71.0597 10.9653 70.7701 10.6695 70.844C10.3368 70.9303 9.91163 71.4355 9.39405 72.3598C8.87647 73.2717 8.42666 74.1836 8.04463 75.0956C7.67493 76.0075 7.41614 76.7223 7.26826 77.2399C7.09573 77.7698 6.90472 78.6016 6.69522 79.7353C6.49805 80.8568 6.39946 81.627 6.39946 82.046C6.39946 82.7607 6.49805 83.1366 6.69522 83.1736C7.97686 82.1014 8.7101 81.4729 8.89495 81.2881C9.24001 80.943 9.67749 80.943 10.2074 81.2881L11.7971 82.3417C12.0189 82.4773 12.1422 82.6868 12.1668 82.9702C12.1915 83.2537 12.1483 83.4509 12.0374 83.5618C11.5815 84.2519 10.7928 85.0406 9.67133 85.9279C8.56222 86.8151 7.78584 87.2958 7.3422 87.3697C6.62744 87.4929 5.67238 87.2588 4.47701 86.6673C3.29396 86.0634 2.56688 85.4534 2.29576 84.8372C1.95071 84.0239 1.76586 83.0688 1.74121 81.972C1.71656 80.8629 1.82131 79.7785 2.05546 78.7187C2.2896 77.6589 2.59152 76.599 2.96123 75.5392C3.33093 74.4671 3.70063 73.5428 4.07033 72.7665C4.45236 71.9778 4.80974 71.3369 5.14247 70.844C7.28674 67.6646 9.34476 66.1858 11.3165 66.4076ZM21.671 86.7782C21.671 86.7782 21.3383 85.9833 20.6728 84.3936H20.6913L20.6173 84.2272L20.2661 84.6524C19.4897 85.5766 18.8797 86.2175 18.4361 86.5748C18.0048 86.9322 17.5673 87.1109 17.1236 87.1109H16.8464C16.415 87.1109 15.7866 86.6981 14.9609 85.8724C13.8641 84.7756 13.3835 83.5494 13.519 82.1939C13.7902 79.4581 14.5049 76.5497 15.6633 73.4689C16.8217 70.3757 17.937 68.4225 19.0091 67.6091C19.8594 66.956 20.87 66.6294 22.0407 66.6294C23.1375 66.6294 24.1726 66.9806 25.1462 67.683L25.1832 67.4982C25.2325 67.2887 25.2817 67.1223 25.331 66.9991C25.3803 66.8759 25.4728 66.7588 25.6083 66.6479C25.7439 66.537 25.9164 66.4815 26.1259 66.4815L28.5475 66.4445C29.484 66.4445 29.8414 66.8635 29.6196 67.7015L25.4604 81.6023C25.8178 81.2203 26.0889 80.8753 26.2738 80.5672C26.5202 80.1605 26.8407 80.0742 27.235 80.3084L28.8987 81.399C29.293 81.6701 29.3793 81.9597 29.1575 82.2678C28.2702 83.5618 27.235 84.6709 26.052 85.5951C24.8689 86.5194 23.6304 87.0493 22.3364 87.1849C22.0407 87.2218 21.8189 87.0863 21.671 86.7782ZM24.3698 70.844C23.3839 70.5236 22.7062 70.4928 22.3364 70.7516C21.8189 71.1459 21.1534 72.4337 20.3401 74.615C19.539 76.7962 18.9968 78.6632 18.7134 80.216C18.6271 80.6842 18.5901 80.9923 18.6025 81.1402C18.6271 81.2881 18.7257 81.362 18.8982 81.362C19.0954 81.362 19.385 81.1402 19.767 80.6966C20.1614 80.2406 20.605 79.5936 21.0979 78.7556C22.2317 76.8085 23.3223 74.1713 24.3698 70.844ZM37.8715 69.9937C38.3521 69.2913 38.8573 68.6135 39.3872 67.9603C39.4119 67.9234 39.4612 67.8617 39.5351 67.7755C39.6214 67.6769 39.6707 67.6153 39.683 67.5906C39.7077 67.566 39.7508 67.5167 39.8124 67.4427C39.874 67.3688 39.911 67.3257 39.9233 67.3133C39.948 67.2887 39.9849 67.2517 40.0342 67.2024C40.0958 67.1408 40.139 67.0977 40.1636 67.073C40.2006 67.0361 40.2437 66.9991 40.293 66.9621C40.3423 66.9128 40.3916 66.8759 40.4409 66.8512C40.4902 66.8142 40.5395 66.7773 40.5888 66.7403C40.8722 66.5431 41.4021 66.4445 42.1785 66.4445H44.2673C44.5877 66.4445 44.8219 66.5123 44.9697 66.6479C45.13 66.7711 45.1484 66.9868 45.0252 67.2949C44.9143 67.5906 44.6247 67.948 44.1564 68.367C43.6511 68.823 42.8686 69.7102 41.8088 71.0289C41.1557 71.8668 40.8291 72.446 40.8291 72.7665C40.8291 73.4196 41.1433 74.0358 41.7718 74.615C41.8581 74.7136 41.8889 74.8121 41.8642 74.9107C41.8396 75.0093 41.7472 75.1017 41.587 75.188C41.4391 75.2743 41.2604 75.3236 41.0509 75.3359L38.3521 75.5762C37.9208 75.6132 37.5819 75.5331 37.3354 75.3359C37.1875 75.225 36.978 74.9231 36.7069 74.4301L33.6199 86.1682C33.472 86.7227 33.0961 87 32.4923 87H29.4238C28.7337 87 28.4564 86.7104 28.5919 86.1312L33.509 67.3873C33.6569 66.8327 34.0389 66.5555 34.6551 66.5555H37.7236C38.4137 66.5555 38.691 66.8451 38.5554 67.4243L37.8715 69.9937ZM53.4537 59.1429C53.4537 59.1429 52.5232 62.803 50.6624 70.1231L51.4942 69.1249C52.2706 68.2006 52.8745 67.5598 53.3058 67.2024C53.7494 66.8451 54.1931 66.6664 54.6367 66.6664H54.8955C55.3268 66.6664 55.9615 67.0854 56.7995 67.9234C57.8963 69.0201 58.3769 70.2402 58.2413 71.5834C57.9702 74.3192 57.2554 77.2337 56.097 80.3269C54.9386 83.4077 53.8234 85.3548 52.7512 86.1682C51.9009 86.8213 50.8904 87.1479 49.7197 87.1479C48.6106 87.1479 47.5692 86.7967 46.5957 86.0942L46.5772 86.1682C46.4293 86.7227 46.0473 87 45.4311 87H42.529C42.1223 87 41.8388 86.8829 41.6786 86.6488C41.5061 86.4146 41.4568 86.125 41.5308 85.78L48.3518 59.106C48.4996 58.5514 48.8755 58.2741 49.4794 58.2741H52.6218C53.3119 58.2741 53.5892 58.5637 53.4537 59.1429ZM47.3905 82.9518C47.7726 83.075 48.1423 83.1489 48.4996 83.1736C48.8694 83.1982 49.1713 83.1489 49.4054 83.0257C49.923 82.6313 50.5885 81.3436 51.4018 79.1623C52.2152 76.9811 52.7636 75.1141 53.047 73.5613C53.1333 73.093 53.1641 72.7911 53.1394 72.6555C53.1271 72.5077 53.0347 72.4337 52.8621 72.4337C52.665 72.4337 52.3692 72.6617 51.9749 73.1177C51.5928 73.5613 51.1553 74.2021 50.6624 75.0401C49.4424 77.1474 48.4195 79.5936 47.5939 82.3787L47.3905 82.9518ZM66.45 66.2227C66.45 66.2227 66.6657 66.2227 67.097 66.2227C68.1321 66.2227 69.118 66.5555 70.0546 67.2209C71.0035 67.8864 71.6936 68.6874 72.1249 69.624C72.2112 69.7842 72.2358 69.9998 72.1989 70.271C72.1742 70.5298 72.0633 70.7208 71.8661 70.844L70.0176 72.1195C69.5863 72.4152 69.2043 72.3536 68.8716 71.9346C68.0336 70.9118 67.2264 70.3203 66.45 70.1601C66.1296 70.3203 65.803 70.7331 65.4703 71.3986C65.1376 72.0517 64.9712 72.6864 64.9712 73.3025C64.9465 73.6476 65.039 73.968 65.2485 74.2638C65.458 74.5595 65.7599 74.7444 66.1542 74.8183L66.8382 74.9292C67.479 75.0401 68.0028 75.2127 68.4094 75.4468C68.8284 75.6686 69.1673 76.063 69.4261 76.6298C69.6972 77.1967 69.8143 77.93 69.7773 78.8296C69.765 79.6922 69.5863 80.6226 69.2413 81.6208C68.9085 82.6067 68.4587 83.5371 67.8918 84.4121C67.3373 85.2747 66.6349 85.9956 65.7845 86.5748C64.9465 87.1417 64.0716 87.4252 63.1596 87.4252H62.6606C61.4898 87.4252 60.4916 87.0986 59.666 86.4454C58.8403 85.78 58.2488 85.0406 57.8914 84.2272C57.6449 83.6234 57.6696 83.1489 57.9653 82.8039L59.592 81.5099C59.8631 81.2635 60.1281 81.1587 60.3869 81.1957C60.658 81.2203 60.8613 81.3744 60.9969 81.6578C61.1817 82.0275 61.5022 82.3972 61.9581 82.7669C62.4264 83.1243 62.8762 83.3215 63.3075 83.3584C63.7758 83.112 64.1455 82.6067 64.4166 81.8427C64.6878 81.0786 64.8356 80.3269 64.8603 79.5875C64.8603 79.1192 64.7124 78.7372 64.4166 78.4414C64.1209 78.1333 63.7142 77.9423 63.1966 77.8683L62.6975 77.7944C61.7609 77.6712 61.0893 77.3384 60.6826 76.7962C60.2883 76.2417 60.1034 75.4653 60.1281 74.4671C60.1651 73.1238 60.504 71.8114 61.1448 70.5298C61.7979 69.2358 62.6051 68.1945 63.5663 67.4058C64.5399 66.6171 65.5011 66.2227 66.45 66.2227Z" fill="white"/>
</svg>
