<svg width="110" height="35" viewBox="0 0 110 35" fill="none" xmlns="http://www.w3.org/2000/svg">
<path d="M8.77412 7.67358L7.7367 11.8057C8.44004 11.6064 9.14923 11.5068 9.86429 11.5068C10.6262 11.5068 11.2885 11.624 11.8512 11.8584C12.4256 12.0812 12.8652 12.3977 13.17 12.8079C13.4865 13.2182 13.7326 13.6695 13.9085 14.1619C14.0843 14.6425 14.1781 15.1817 14.1898 15.7795C14.2133 16.3656 14.2015 16.9107 14.1546 17.4148C14.1078 17.9188 14.0316 18.4346 13.9261 18.9621C13.3165 22.0099 12.1794 24.3895 10.5149 26.101C8.86204 27.8124 7.02164 28.5803 4.99369 28.4044C4.09107 28.4865 3.28224 28.3868 2.56718 28.1055C1.86384 27.8242 1.32462 27.4197 0.949504 26.8922C0.586114 26.353 0.345807 25.7493 0.228584 25.0812C0.111362 24.413 0.175834 23.7096 0.422002 22.9711C0.66817 22.2326 1.06673 21.5469 1.61767 20.9139C1.71145 20.8084 1.78179 20.7381 1.82867 20.7029C1.88729 20.656 1.98693 20.6091 2.12759 20.5622C2.26826 20.5153 2.42065 20.5212 2.58476 20.5798L4.74752 21.0194C5.07574 21.078 5.28674 21.1659 5.38052 21.2831C5.4743 21.3886 5.46844 21.5996 5.36294 21.9161C5.03472 22.8774 4.90577 23.6335 4.9761 24.1844C5.04644 24.7236 5.26916 25.0225 5.64427 25.0812C5.83183 25.1046 6.13661 24.8995 6.55861 24.4657C6.99234 24.0203 7.46123 23.3814 7.96528 22.5491C8.46934 21.7051 8.86204 20.8318 9.14337 19.9292C9.38954 19.1087 9.56537 18.3467 9.67087 17.6434C9.77638 16.9283 9.7881 16.3305 9.70604 15.8499C9.62399 15.3575 9.43643 15.0762 9.14337 15.0059C8.55726 15.0528 7.94184 15.3634 7.29711 15.9378C6.66411 16.5005 6.13661 17.1628 5.71461 17.9247C5.52705 18.2295 5.27502 18.3233 4.95852 18.206L2.40893 17.2038C2.16276 17.11 2.00451 16.9986 1.93418 16.8697C1.87556 16.7408 1.88729 16.5005 1.96934 16.1488L4.95852 4.2624C5.08747 3.75834 5.45086 3.50631 6.04869 3.50631H16.8097C17.1731 3.50631 17.4076 3.60595 17.5131 3.80523C17.6186 4.00451 17.6127 4.33859 17.4955 4.80748L16.9152 7.11091C16.8449 7.42741 16.7687 7.62669 16.6867 7.70875C16.6046 7.7908 16.4405 7.83183 16.1943 7.83183L8.77412 7.67358ZM25.6935 12.6321C24.7557 12.3273 24.1169 12.298 23.7769 12.5442C23.2846 12.9193 22.6516 14.1443 21.8779 16.2191C21.1042 18.294 20.5826 20.0699 20.313 21.5469C20.2309 21.9923 20.2016 22.2854 20.2251 22.4261C20.2485 22.5667 20.3423 22.6371 20.5064 22.6371C20.694 22.6371 20.9694 22.4261 21.3328 22.0041C21.7079 21.5703 22.1299 20.9549 22.5988 20.1578C23.7359 18.2119 24.703 15.8792 25.5001 13.1596L25.6935 12.6321ZM22.0537 25.468L21.79 25.7669C21.0515 26.6461 20.4712 27.2556 20.0492 27.5956C19.639 27.9355 19.2228 28.1055 18.8008 28.1055H18.5547C18.1444 28.1055 17.5465 27.7128 16.7611 26.9274C15.7179 25.8841 15.2607 24.7178 15.3896 23.4283C15.6475 20.826 16.3274 18.0595 17.4293 15.1289C18.5312 12.1867 19.5921 10.3287 20.6119 9.555C21.4207 8.93372 22.382 8.62308 23.4956 8.62308C24.574 8.62308 25.5997 8.98647 26.5727 9.71325C26.7954 8.96303 27.1705 8.58792 27.698 8.58792L29.8959 8.55275C30.529 8.55275 30.781 8.87511 30.652 9.51984C30.1714 11.454 29.4915 13.9919 28.6124 17.1335C27.7332 20.2633 26.8892 23.2056 26.0803 25.9603C25.2832 28.7151 24.8612 30.1745 24.8143 30.3386C24.2986 32.2024 23.4721 33.4391 22.3351 34.0487C21.7138 34.3886 21.2332 34.6114 20.8932 34.7169C20.5533 34.8341 20.1723 34.8575 19.7503 34.7872C19.3283 34.7286 18.8477 34.541 18.3085 34.2245L14.6336 32.1497C14.317 32.009 14.1471 31.798 14.1236 31.5167C14.1002 31.2353 14.1764 31.0126 14.3522 30.8485L15.4951 29.3012C15.7061 29.0784 15.8937 28.9436 16.0578 28.8968C16.2336 28.8499 16.4446 28.885 16.6908 29.0023L19.8207 30.7078C20.2309 30.9188 20.5533 30.6375 20.7877 29.8638L22.0537 25.468ZM37.549 13.8805L40.1865 10.2056C40.6085 9.64292 41.0247 9.22678 41.435 8.95717C41.857 8.68756 42.3434 8.55275 42.8944 8.55275H44.6527C45.2037 8.55275 45.6491 8.72272 45.9891 9.06267C46.329 9.40261 46.3876 10.0005 46.1649 10.8562L45.4616 13.5289L47.9584 10.3111C48.4507 9.6312 48.9196 9.16231 49.3651 8.90442C49.8222 8.64653 50.3263 8.51758 50.8772 8.51758H52.2136C52.7997 8.51758 53.2393 8.711 53.5323 9.09784C53.8371 9.47295 53.8664 10.1294 53.6203 11.0672L49.2947 27.4901C49.1892 27.8535 48.8903 28.0352 48.398 28.0352L45.4791 28C45.3502 28 45.233 27.9297 45.1275 27.789C45.0337 27.6366 45.0278 27.4197 45.1099 27.1384L47.4309 18.927C47.4661 18.7863 47.5247 18.5753 47.6067 18.294C47.6888 18.0009 47.7591 17.7489 47.8177 17.5379C47.8763 17.3269 47.9291 17.11 47.976 16.8873C48.0229 16.6646 48.0463 16.4946 48.0463 16.3774C48.0463 16.2484 48.017 16.1839 47.9584 16.1839C47.8881 16.1839 47.8177 16.2133 47.7474 16.2719C47.6771 16.3305 47.595 16.4243 47.5012 16.5532C47.4192 16.6821 47.343 16.7994 47.2727 16.9049C47.214 17.0104 47.1203 17.1745 46.9913 17.3972C46.8741 17.6082 46.7803 17.7723 46.71 17.8895C46.1239 18.9328 45.2271 20.6794 44.0197 23.1294C42.824 25.5794 42.0738 27.0329 41.769 27.4901C41.5932 27.8535 41.2943 28.0352 40.8723 28.0352L37.9534 28C37.8245 28 37.7073 27.9297 37.6018 27.789C37.508 27.6366 37.5021 27.4197 37.5842 27.1384L39.8173 18.927C39.8407 18.8215 39.8818 18.6691 39.9404 18.4698C40.0107 18.2588 40.0635 18.083 40.0986 17.9423C40.1455 17.8016 40.1924 17.6317 40.2393 17.4324C40.2979 17.2331 40.3331 17.069 40.3448 16.94C40.3682 16.8111 40.3858 16.688 40.3975 16.5708C40.4093 16.4418 40.3975 16.3481 40.3624 16.2894C40.3389 16.2191 40.292 16.1839 40.2217 16.1839C40.1514 16.1839 40.081 16.2074 40.0107 16.2543C39.9521 16.3012 39.8759 16.3832 39.7821 16.5005C39.7001 16.6177 39.6297 16.7232 39.5711 16.817C39.5125 16.9107 39.4246 17.0573 39.3074 17.2565C39.1901 17.4558 39.0964 17.6141 39.026 17.7313C38.3696 18.798 37.4201 20.5564 36.1775 23.0063C34.9467 25.4563 34.1847 26.8922 33.8917 27.3142C33.5517 27.7714 33.1766 28 32.7663 28H30.5684C30.3574 28 30.1933 27.9121 30.0761 27.7362C29.9471 27.5487 29.9178 27.326 29.9882 27.0681L34.6829 9.555C34.8353 8.88683 35.1928 8.55275 35.7555 8.55275H38.0589C38.5044 8.55275 38.7916 8.63481 38.9205 8.79892C39.0495 8.96303 39.0612 9.25609 38.9557 9.67809L37.549 13.8805ZM64.4075 28C64.4075 28 63.4873 28 61.6469 28C61.3421 28 61.1194 27.9238 60.9787 27.7714C60.838 27.619 60.797 27.4197 60.8556 27.1736L64.8295 12.1573H63.1239C62.8777 12.1573 62.7136 12.0987 62.6316 11.9815C62.5612 11.8526 62.5671 11.624 62.6491 11.2958L63.2294 9.2385C63.3114 8.95717 63.4111 8.77547 63.5283 8.69342C63.6573 8.59964 63.8214 8.55275 64.0206 8.55275H65.779L66.0251 7.62083C66.5527 5.63977 67.2618 4.0514 68.1527 2.85573C69.0554 1.64833 70.1866 0.851216 71.5463 0.464381C72.2028 0.25338 72.742 0.224075 73.164 0.376465L76.4697 1.23805C76.7979 1.32011 76.9855 1.54869 77.0324 1.9238C77.091 2.2872 77.0265 2.63886 76.8389 2.97881L75.907 4.73715C75.7429 5.0771 75.3209 5.13571 74.641 4.91299L72.4431 4.20965C71.6343 5.01848 70.9602 6.40757 70.421 8.37692L70.3858 8.55275H72.3728C72.6541 8.55275 72.8358 8.61722 72.9178 8.74617C72.9999 8.86339 72.9999 9.06267 72.9178 9.344L72.3024 11.3661C72.15 11.8936 71.8394 12.1573 71.3705 12.1573H69.4363L65.4625 27.2087C65.3218 27.7362 64.9701 28 64.4075 28ZM79.4204 27.789C79.4204 27.789 79.1039 27.0329 78.4709 25.5207H78.4885L78.4182 25.3625L78.0841 25.7669C77.3456 26.6461 76.7653 27.2556 76.3433 27.5956C75.933 27.9355 75.5169 28.1055 75.0949 28.1055H74.8311C74.4209 28.1055 73.823 27.7128 73.0376 26.9274C71.9944 25.8841 71.5372 24.7178 71.6661 23.4283C71.924 20.826 72.6039 18.0595 73.7058 15.1289C74.8077 12.1867 75.8686 10.3287 76.8884 9.555C77.6972 8.93372 78.6585 8.62308 79.7721 8.62308C80.8154 8.62308 81.8 8.95717 82.7261 9.62534L82.7613 9.4495C82.8081 9.25023 82.855 9.09197 82.9019 8.97475C82.9488 8.85753 83.0367 8.74617 83.1657 8.64067C83.2946 8.53517 83.4587 8.48242 83.658 8.48242L85.9614 8.44725C86.8523 8.44725 87.1923 8.84581 86.9813 9.64292L83.025 22.8656C83.365 22.5023 83.6228 22.174 83.7987 21.881C84.0331 21.4941 84.3379 21.4121 84.713 21.6348L86.2955 22.6722C86.6706 22.9301 86.7527 23.2056 86.5417 23.4986C85.6977 24.7295 84.713 25.7845 83.5877 26.6637C82.4623 27.5428 81.2843 28.0469 80.0534 28.1758C79.7721 28.211 79.5611 28.0821 79.4204 27.789ZM81.9876 12.6321C81.0498 12.3273 80.4051 12.298 80.0534 12.5442C79.5611 12.9193 78.9281 14.1443 78.1544 16.2191C77.3925 18.294 76.8767 20.0699 76.6071 21.5469C76.525 21.9923 76.4898 22.2854 76.5016 22.4261C76.525 22.5667 76.6188 22.6371 76.7829 22.6371C76.9705 22.6371 77.2459 22.4261 77.6093 22.0041C77.9844 21.5703 78.4064 20.9549 78.8753 20.1578C79.9538 18.3057 80.9912 15.7971 81.9876 12.6321ZM97.2571 4.1569C97.2571 4.1569 96.8879 5.62218 96.1494 8.55275H98.0836C98.3649 8.55275 98.5466 8.61722 98.6286 8.74617C98.7107 8.86339 98.7107 9.06267 98.6286 9.344L98.0132 11.3661C97.8608 11.8936 97.5502 12.1573 97.0813 12.1573H95.2175L91.3843 27.2087C91.2436 27.7362 90.8861 28 90.3117 28H87.5335C87.1467 28 86.8771 27.8886 86.7247 27.6659C86.5723 27.4432 86.5312 27.1677 86.6016 26.8395L90.3468 12.1573H88.9753C88.7292 12.1573 88.5651 12.0987 88.483 11.9815C88.4127 11.8526 88.4185 11.624 88.5006 11.2958L89.0808 9.2385C89.1629 8.95717 89.2625 8.77547 89.3798 8.69342C89.5087 8.59964 89.6728 8.55275 89.8721 8.55275H91.2612L92.4041 4.12173C92.5448 3.59423 92.9023 3.33048 93.4767 3.33048H96.4659C97.1223 3.33048 97.3861 3.60595 97.2571 4.1569ZM104.039 8.23625C104.039 8.23625 104.244 8.23625 104.654 8.23625C105.639 8.23625 106.576 8.55275 107.467 9.18575C108.37 9.81876 109.026 10.5807 109.437 11.4716C109.519 11.624 109.542 11.8291 109.507 12.087C109.484 12.3332 109.378 12.5149 109.19 12.6321L107.432 13.8454C107.022 14.1267 106.658 14.0681 106.342 13.6695C105.545 12.6966 104.777 12.1339 104.039 11.9815C103.734 12.1339 103.423 12.5266 103.107 13.1596C102.79 13.7809 102.632 14.3846 102.632 14.9707C102.608 15.2989 102.696 15.6037 102.896 15.885C103.095 16.1664 103.382 16.3422 103.757 16.4125L104.408 16.518C105.017 16.6235 105.516 16.7876 105.902 17.0104C106.301 17.2214 106.623 17.5965 106.869 18.1357C107.127 18.6749 107.239 19.3724 107.204 20.2281C107.192 21.0487 107.022 21.9337 106.694 22.8832C106.377 23.821 105.949 24.706 105.41 25.5383C104.883 26.3589 104.214 27.0446 103.406 27.5956C102.608 28.1348 101.776 28.4044 100.909 28.4044H100.434C99.3203 28.4044 98.3708 28.0938 97.5854 27.4725C96.8 26.8395 96.2373 26.1362 95.8974 25.3625C95.663 24.7881 95.6864 24.3368 95.9677 24.0086L97.5151 22.7777C97.773 22.5433 98.025 22.4436 98.2712 22.4788C98.5291 22.5023 98.7225 22.6488 98.8514 22.9184C99.0272 23.2701 99.332 23.6217 99.7658 23.9734C100.211 24.3133 100.639 24.5009 101.049 24.5361C101.495 24.3016 101.846 23.821 102.104 23.0942C102.362 22.3674 102.503 21.6524 102.526 20.9491C102.526 20.5036 102.386 20.1402 102.104 19.8589C101.823 19.5658 101.436 19.3841 100.944 19.3138L100.469 19.2435C99.5782 19.1262 98.9393 18.8097 98.5525 18.294C98.1774 17.7665 98.0016 17.028 98.025 16.0784C98.0602 14.8007 98.3825 13.5523 98.9921 12.3332C99.6134 11.1023 100.381 10.1118 101.296 9.36159C102.222 8.61136 103.136 8.23625 104.039 8.23625Z" fill="white"/>
</svg>
